<?xml version="1.0" encoding="UTF-8" standalone="no"?>
<!-- Created with Inkscape (http://www.inkscape.org/) -->

<svg
   xmlns:dc="http://purl.org/dc/elements/1.1/"
   xmlns:cc="http://creativecommons.org/ns#"
   xmlns:rdf="http://www.w3.org/1999/02/22-rdf-syntax-ns#"
   xmlns:svg="http://www.w3.org/2000/svg"
   xmlns="http://www.w3.org/2000/svg"
   xmlns:sodipodi="http://sodipodi.sourceforge.net/DTD/sodipodi-0.dtd"
   xmlns:inkscape="http://www.inkscape.org/namespaces/inkscape"
   width="23mm"
   height="14mm"
   viewBox="0 0 23 14"
   version="1.1"
   id="svg4519"
   inkscape:version="0.92.1 r15371"
   sodipodi:docname="airplane.svg">
  <defs
     id="defs4513" />
  <sodipodi:namedview
     id="base"
     pagecolor="#ffffff"
     bordercolor="#666666"
     borderopacity="1.0"
     inkscape:pageopacity="0.0"
     inkscape:pageshadow="2"
     inkscape:zoom="5.6"
     inkscape:cx="34.67321"
     inkscape:cy="50.685025"
     inkscape:document-units="mm"
     inkscape:current-layer="layer1"
     showgrid="false"
     inkscape:window-width="1278"
     inkscape:window-height="1368"
     inkscape:window-x="1359"
     inkscape:window-y="0"
     inkscape:window-maximized="0" />
  <metadata
     id="metadata4516">
    <rdf:RDF>
      <cc:Work
         rdf:about="">
        <dc:format>image/svg+xml</dc:format>
        <dc:type
           rdf:resource="http://purl.org/dc/dcmitype/StillImage" />
        <dc:title></dc:title>
      </cc:Work>
    </rdf:RDF>
  </metadata>
  <g
     inkscape:label="Layer 1"
     inkscape:groupmode="layer"
     id="layer1"
     transform="translate(0,-283)">
    <g
       id="g5066"
       transform="matrix(0.26458333,0,0,0.26458333,-1.8020011,277.06176)"
       style="fill:#34527a;fill-opacity:1">
      <path
         id="path5064"
         d="M 85,41 64.2,40.6 42.7,25.2 C 42.5,25.1 42.3,25 42.1,25 H 34 c -0.4,0 -0.7,0.2 -0.9,0.6 -0.2,0.4 -0.1,0.8 0.1,1.1 L 45,40.7 25.3,41 17.1,30.4 C 16.9,30.2 16.6,30 16.3,30 H 8.1 c -0.3,0 -0.7,0.2 -0.8,0.5 -0.2,0.3 -0.2,0.7 0,1 l 9.9,20 c 0.2,0.3 0.5,0.5 0.8,0.6 L 45.6,55 28.2,73.3 c -0.3,0.3 -0.3,0.7 -0.2,1.1 0.2,0.4 0.5,0.6 0.9,0.6 h 10.3 c 0.2,0 0.4,-0.1 0.6,-0.2 L 64.2,56.7 84.9,57 c 4.4,0 8,-3.6 8,-8 0,-4.4 -3.5,-8 -7.9,-8 z M 36.1,27 h 5.7 l 18.9,13.5 -3.8,-0.1 c 0,0 0,0 -0.1,0 l -9.1,0.2 z M 85,55 64,54.7 c 0,0 0,0 0,0 0,0 -0.1,0 -0.1,0 -0.1,0 -0.1,0 -0.2,0 -0.1,0 -0.1,0.1 -0.2,0.1 0,0 -0.1,0 -0.1,0 L 38.9,73 H 31.2 L 48.3,54.8 c 0,0 0,-0.1 0.1,-0.1 0,-0.1 0.1,-0.1 0.1,-0.2 0,-0.1 0,-0.1 0.1,-0.2 0,0 0,-0.1 0,-0.1 0,0 0,0 0,-0.1 0,-0.1 0,-0.1 0,-0.2 0,-0.1 0,-0.1 0,-0.2 0,-0.1 -0.1,-0.1 -0.1,-0.2 0,-0.1 -0.1,-0.1 -0.1,-0.2 0,0 0,0 0,-0.1 0,0 -0.1,0 -0.1,-0.1 -0.1,0 -0.1,-0.1 -0.2,-0.1 -0.1,0 -0.1,0 -0.2,-0.1 0,0 -0.1,0 -0.1,0 L 18.7,49.8 9.7,32 h 6.1 L 24,42.6 c 0.2,0.2 0.5,0.4 0.8,0.4 l 32,-0.6 c 0,0 0,0 0.1,0 l 28,0.6 c 3.3,0 6,2.7 6,6 0,3.3 -2.7,6 -5.9,6 z"
         inkscape:connector-curvature="0"
         style="fill:#34527a;fill-opacity:1" />
    </g>
  </g>
</svg>
