<svg xmlns="http://www.w3.org/2000/svg" xmlns:xlink="http://www.w3.org/1999/xlink" version="1.1" x="0px" y="0px" viewBox="0 0 100 125" style="enable-background:new 0 0 100 100;" xml:space="preserve"><g><path d="M85,41l-20.8-0.4L42.7,25.2c-0.2-0.1-0.4-0.2-0.6-0.2h-8.1c-0.4,0-0.7,0.2-0.9,0.6c-0.2,0.4-0.1,0.8,0.1,1.1l11.8,14   L25.3,41l-8.2-10.6c-0.2-0.2-0.5-0.4-0.8-0.4H8.1c-0.3,0-0.7,0.2-0.8,0.5c-0.2,0.3-0.2,0.7,0,1l9.9,20c0.2,0.3,0.5,0.5,0.8,0.6   l27.6,2.9L28.2,73.3c-0.3,0.3-0.3,0.7-0.2,1.1c0.2,0.4,0.5,0.6,0.9,0.6h10.3c0.2,0,0.4-0.1,0.6-0.2l24.4-18.1L84.9,57   c4.4,0,8-3.6,8-8S89.4,41,85,41z M36.1,27h5.7l18.9,13.5l-3.8-0.1c0,0,0,0-0.1,0l-9.1,0.2L36.1,27z M85,55l-21-0.3c0,0,0,0,0,0   c0,0-0.1,0-0.1,0c-0.1,0-0.1,0-0.2,0c-0.1,0-0.1,0.1-0.2,0.1c0,0-0.1,0-0.1,0L38.9,73h-7.7l17.1-18.2c0,0,0-0.1,0.1-0.1   c0-0.1,0.1-0.1,0.1-0.2c0-0.1,0-0.1,0.1-0.2c0,0,0-0.1,0-0.1c0,0,0,0,0-0.1c0-0.1,0-0.1,0-0.2c0-0.1,0-0.1,0-0.2   c0-0.1-0.1-0.1-0.1-0.2c0-0.1-0.1-0.1-0.1-0.2c0,0,0,0,0-0.1c0,0-0.1,0-0.1-0.1c-0.1,0-0.1-0.1-0.2-0.1c-0.1,0-0.1,0-0.2-0.1   c0,0-0.1,0-0.1,0l-29.1-3.1L9.7,32h6.1L24,42.6c0.2,0.2,0.5,0.4,0.8,0.4l32-0.6c0,0,0,0,0.1,0L84.9,43c3.3,0,6,2.7,6,6   S88.2,55,85,55z"/></g><text x="0" y="115" fill="#000000" font-size="5px" font-weight="bold" font-family="'Helvetica Neue', Helvetica, Arial-Unicode, Arial, Sans-serif">Created by Agni</text><text x="0" y="120" fill="#000000" font-size="5px" font-weight="bold" font-family="'Helvetica Neue', Helvetica, Arial-Unicode, Arial, Sans-serif">from the Noun Project</text></svg>