<?xml version="1.0" encoding="UTF-8" standalone="no"?>
<!-- Created with Inkscape (http://www.inkscape.org/) -->

<svg
   xmlns:dc="http://purl.org/dc/elements/1.1/"
   xmlns:cc="http://creativecommons.org/ns#"
   xmlns:rdf="http://www.w3.org/1999/02/22-rdf-syntax-ns#"
   xmlns:svg="http://www.w3.org/2000/svg"
   xmlns="http://www.w3.org/2000/svg"
   xmlns:sodipodi="http://sodipodi.sourceforge.net/DTD/sodipodi-0.dtd"
   xmlns:inkscape="http://www.inkscape.org/namespaces/inkscape"
   width="19mm"
   height="18mm"
   viewBox="0 0 19 18"
   version="1.1"
   id="svg8"
   inkscape:version="0.92.1 r15371"
   sodipodi:docname="commercial.svg">
  <defs
     id="defs2" />
  <sodipodi:namedview
     id="base"
     pagecolor="#ffffff"
     bordercolor="#666666"
     borderopacity="1.0"
     inkscape:pageopacity="0.0"
     inkscape:pageshadow="2"
     inkscape:zoom="7.9195959"
     inkscape:cx="24.97223"
     inkscape:cy="44.802814"
     inkscape:document-units="mm"
     inkscape:current-layer="layer1"
     showgrid="false"
     inkscape:window-width="2560"
     inkscape:window-height="1377"
     inkscape:window-x="1358"
     inkscape:window-y="-8"
     inkscape:window-maximized="1" />
  <metadata
     id="metadata5">
    <rdf:RDF>
      <cc:Work
         rdf:about="">
        <dc:format>image/svg+xml</dc:format>
        <dc:type
           rdf:resource="http://purl.org/dc/dcmitype/StillImage" />
        <dc:title></dc:title>
      </cc:Work>
    </rdf:RDF>
  </metadata>
  <g
     inkscape:label="Layer 1"
     inkscape:groupmode="layer"
     id="layer1"
     transform="translate(0,-279)">
    <g
       id="g5081"
       transform="matrix(0.26458333,0,0,0.26458333,-3.7745758,274.85044)"
       style="fill:#34527b;fill-opacity:1">
      <path
         id="path5079"
         d="M 85.055,39.734 C 85.228,34.56 77.925,20.088 77.092,18.455 76.836,17.953 76.32,17.637 75.756,17.637 H 24.247 c -0.563,0 -1.078,0.315 -1.335,0.816 -0.838,1.634 -8.177,16.113 -7.965,21.293 0.135,3.273 2.661,6.634 6.8,7.557 v 21.856 c 0,7.898 6.11,13.206 15.205,13.206 h 26.097 c 9.096,0 15.207,-5.307 15.207,-13.206 V 47.332 c 4.163,-0.883 6.687,-4.286 6.799,-7.598 z M 81.754,37.479 H 68.099 L 64.576,20.636 h 10.257 c 2.012,4.031 5.835,12.251 6.921,16.843 z M 48.577,20.636 V 37.479 H 35.203 l 3.525,-16.843 z m 12.935,0 3.523,16.843 H 51.577 V 20.636 Z M 48.073,40.479 c -1.102,2.413 -3.58,4.078 -6.356,4.078 -2.776,0 -5.255,-1.665 -6.355,-4.078 z m 16.72,0 c -1.101,2.413 -3.58,4.078 -6.356,4.078 -2.776,0 -5.255,-1.665 -6.355,-4.078 z M 25.169,20.636 H 35.665 L 32.14,37.479 H 18.236 c 1.072,-4.586 4.911,-12.812 6.933,-16.843 z m -7.08,19.843 h 13.17 c -1.288,2.309 -4.248,4.078 -7.229,4.078 -3.466,0 -5.42,-2.197 -5.941,-4.078 z M 60.992,79.364 H 39.011 V 67.406 c 0,-6.06 4.931,-10.991 10.99,-10.991 6.061,0 10.991,4.931 10.991,10.991 z m 3,-0.029 V 67.406 c 0,-7.714 -6.276,-13.991 -13.991,-13.991 -7.714,0 -13.99,6.276 -13.99,13.991 V 79.335 C 30.615,79.05 24.747,76.274 24.747,69.158 V 47.51 c 3.394,-0.232 6.619,-2.056 8.497,-4.608 1.763,2.831 4.908,4.655 8.473,4.655 3.489,0 6.577,-1.749 8.36,-4.478 1.781,2.729 4.87,4.478 8.359,4.478 3.564,0 6.711,-1.824 8.474,-4.655 1.85,2.514 5.008,4.323 8.346,4.599 v 21.658 c 0,7.115 -5.867,9.891 -11.264,10.176 z M 76.124,44.557 c -2.98,0 -5.939,-1.769 -7.228,-4.078 h 13.035 c -0.48,1.909 -2.355,4.078 -5.807,4.078 z"
         inkscape:connector-curvature="0"
         style="fill:#34527b;fill-opacity:1" />
    </g>
  </g>
</svg>
