<svg xmlns="http://www.w3.org/2000/svg" xmlns:xlink="http://www.w3.org/1999/xlink" version="1.1" x="0px" y="0px" viewBox="0 0 64 80" enable-background="new 0 0 64 64" xml:space="preserve"><g><g><path d="M56.895,41.553c-1.435-2.87-5.671-1.093-10.154,0.788C43.766,43.587,40.395,45,38,45c-2.407,0-6.354-0.759-9.002-1.334    C31.65,42.268,35,40.088,35,38c0-1.099-0.455-1.976-1.315-2.535C30.35,33.301,20.965,36.827,17,38.482V36c0-0.553-0.448-1-1-1H8    c-0.552,0-1,0.447-1,1v16c0,0.553,0.448,1,1,1h8c0.552,0,1-0.447,1-1v-2.511C20.818,51.008,31.65,55,40,55    c6.372,0,13.677-4.634,16.246-8.792C57.606,44.009,57.35,42.463,56.895,41.553z M9,51V37h6v14H9z M54.545,45.157    C52.257,48.859,45.551,53,40,53c-8.523,0-20.234-4.545-23-5.669v-6.674c5.122-2.208,13.404-4.939,15.595-3.515    C32.795,37.272,33,37.477,33,38c0,0.981-3.458,3.357-7.401,5.084c-0.392,0.172-0.631,0.573-0.596,0.999    c0.036,0.427,0.338,0.783,0.753,0.887C26.087,45.053,33.893,47,38,47c2.796,0,6.211-1.431,9.514-2.815    c3.117-1.306,6.995-2.931,7.592-1.737C55.518,43.271,55.028,44.375,54.545,45.157z"/><path d="M36,19c2.757,0,5-2.243,5-5s-2.243-5-5-5s-5,2.243-5,5S33.243,19,36,19z M36,11c1.654,0,3,1.346,3,3s-1.346,3-3,3    s-3-1.346-3-3S34.346,11,36,11z"/><path d="M50,25c3.859,0,7-3.14,7-7s-3.141-7-7-7s-7,3.14-7,7S46.141,25,50,25z M50,13c2.757,0,5,2.243,5,5s-2.243,5-5,5    s-5-2.243-5-5S47.243,13,50,13z"/><path d="M37,32c0,2.757,2.243,5,5,5s5-2.243,5-5s-2.243-5-5-5S37,29.243,37,32z M42,29c1.654,0,3,1.346,3,3s-1.346,3-3,3    s-3-1.346-3-3S40.346,29,42,29z"/></g></g><text x="0" y="79" fill="#000000" font-size="5px" font-weight="bold" font-family="'Helvetica Neue', Helvetica, Arial-Unicode, Arial, Sans-serif">Created by Ralf Schmitzer</text><text x="0" y="84" fill="#000000" font-size="5px" font-weight="bold" font-family="'Helvetica Neue', Helvetica, Arial-Unicode, Arial, Sans-serif">from the Noun Project</text></svg>