<?xml version="1.0" encoding="UTF-8" standalone="no"?>
<!-- Created with Inkscape (http://www.inkscape.org/) -->

<svg
   xmlns:dc="http://purl.org/dc/elements/1.1/"
   xmlns:cc="http://creativecommons.org/ns#"
   xmlns:rdf="http://www.w3.org/1999/02/22-rdf-syntax-ns#"
   xmlns:svg="http://www.w3.org/2000/svg"
   xmlns="http://www.w3.org/2000/svg"
   xmlns:sodipodi="http://sodipodi.sourceforge.net/DTD/sodipodi-0.dtd"
   xmlns:inkscape="http://www.inkscape.org/namespaces/inkscape"
   width="14mm"
   height="13mm"
   viewBox="0 0 14 13"
   version="1.1"
   id="svg8"
   inkscape:version="0.92.1 r15371"
   sodipodi:docname="hand_money.svg">
  <defs
     id="defs2" />
  <sodipodi:namedview
     id="base"
     pagecolor="#ffffff"
     bordercolor="#666666"
     borderopacity="1.0"
     inkscape:pageopacity="0.0"
     inkscape:pageshadow="2"
     inkscape:zoom="7.9195959"
     inkscape:cx="45.490954"
     inkscape:cy="44.802814"
     inkscape:document-units="mm"
     inkscape:current-layer="layer1"
     showgrid="false"
     inkscape:window-width="1278"
     inkscape:window-height="1368"
     inkscape:window-x="1359"
     inkscape:window-y="0"
     inkscape:window-maximized="0" />
  <metadata
     id="metadata5">
    <rdf:RDF>
      <cc:Work
         rdf:about="">
        <dc:format>image/svg+xml</dc:format>
        <dc:type
           rdf:resource="http://purl.org/dc/dcmitype/StillImage" />
        <dc:title></dc:title>
      </cc:Work>
    </rdf:RDF>
  </metadata>
  <g
     inkscape:label="Layer 1"
     inkscape:groupmode="layer"
     id="layer1"
     transform="translate(0,-284)">
    <g
       id="g5088"
       transform="matrix(0.26458333,0,0,0.26458333,-1.4851504,282.2859)"
       style="fill:#34527b;fill-opacity:1">
      <g
         id="g5086"
         style="fill:#34527b;fill-opacity:1">
        <path
           id="path5078"
           d="M 56.895,41.553 C 55.46,38.683 51.224,40.46 46.741,42.341 43.766,43.587 40.395,45 38,45 35.593,45 31.646,44.241 28.998,43.666 31.65,42.268 35,40.088 35,38 35,36.901 34.545,36.024 33.685,35.465 30.35,33.301 20.965,36.827 17,38.482 V 36 c 0,-0.553 -0.448,-1 -1,-1 H 8 c -0.552,0 -1,0.447 -1,1 v 16 c 0,0.553 0.448,1 1,1 h 8 c 0.552,0 1,-0.447 1,-1 V 49.489 C 20.818,51.008 31.65,55 40,55 c 6.372,0 13.677,-4.634 16.246,-8.792 1.36,-2.199 1.104,-3.745 0.649,-4.655 z M 9,51 V 37 h 6 V 51 Z M 54.545,45.157 C 52.257,48.859 45.551,53 40,53 31.477,53 19.766,48.455 17,47.331 v -6.674 c 5.122,-2.208 13.404,-4.939 15.595,-3.515 0.2,0.13 0.405,0.335 0.405,0.858 0,0.981 -3.458,3.357 -7.401,5.084 -0.392,0.172 -0.631,0.573 -0.596,0.999 0.036,0.427 0.338,0.783 0.753,0.887 C 26.087,45.053 33.893,47 38,47 c 2.796,0 6.211,-1.431 9.514,-2.815 3.117,-1.306 6.995,-2.931 7.592,-1.737 0.412,0.823 -0.078,1.927 -0.561,2.709 z"
           inkscape:connector-curvature="0"
           style="fill:#34527b;fill-opacity:1" />
        <path
           id="path5080"
           d="m 36,19 c 2.757,0 5,-2.243 5,-5 0,-2.757 -2.243,-5 -5,-5 -2.757,0 -5,2.243 -5,5 0,2.757 2.243,5 5,5 z m 0,-8 c 1.654,0 3,1.346 3,3 0,1.654 -1.346,3 -3,3 -1.654,0 -3,-1.346 -3,-3 0,-1.654 1.346,-3 3,-3 z"
           inkscape:connector-curvature="0"
           style="fill:#34527b;fill-opacity:1" />
        <path
           id="path5082"
           d="m 50,25 c 3.859,0 7,-3.14 7,-7 0,-3.86 -3.141,-7 -7,-7 -3.859,0 -7,3.14 -7,7 0,3.86 3.141,7 7,7 z m 0,-12 c 2.757,0 5,2.243 5,5 0,2.757 -2.243,5 -5,5 -2.757,0 -5,-2.243 -5,-5 0,-2.757 2.243,-5 5,-5 z"
           inkscape:connector-curvature="0"
           style="fill:#34527b;fill-opacity:1" />
        <path
           id="path5084"
           d="m 37,32 c 0,2.757 2.243,5 5,5 2.757,0 5,-2.243 5,-5 0,-2.757 -2.243,-5 -5,-5 -2.757,0 -5,2.243 -5,5 z m 5,-3 c 1.654,0 3,1.346 3,3 0,1.654 -1.346,3 -3,3 -1.654,0 -3,-1.346 -3,-3 0,-1.654 1.346,-3 3,-3 z"
           inkscape:connector-curvature="0"
           style="fill:#34527b;fill-opacity:1" />
      </g>
    </g>
  </g>
</svg>
