<?xml version="1.0" encoding="UTF-8" standalone="no"?>
<!-- Created with Inkscape (http://www.inkscape.org/) -->

<svg
   xmlns:dc="http://purl.org/dc/elements/1.1/"
   xmlns:cc="http://creativecommons.org/ns#"
   xmlns:rdf="http://www.w3.org/1999/02/22-rdf-syntax-ns#"
   xmlns:svg="http://www.w3.org/2000/svg"
   xmlns="http://www.w3.org/2000/svg"
   xmlns:sodipodi="http://sodipodi.sourceforge.net/DTD/sodipodi-0.dtd"
   xmlns:inkscape="http://www.inkscape.org/namespaces/inkscape"
   width="14mm"
   height="12mm"
   viewBox="0 0 14 12"
   version="1.1"
   id="svg8"
   inkscape:version="0.92.1 r15371"
   sodipodi:docname="heart.svg">
  <defs
     id="defs2" />
  <sodipodi:namedview
     id="base"
     pagecolor="#ffffff"
     bordercolor="#666666"
     borderopacity="1.0"
     inkscape:pageopacity="0.0"
     inkscape:pageshadow="2"
     inkscape:zoom="7.9195959"
     inkscape:cx="10.652955"
     inkscape:cy="42.217726"
     inkscape:document-units="mm"
     inkscape:current-layer="layer1"
     showgrid="false"
     inkscape:window-width="1278"
     inkscape:window-height="1368"
     inkscape:window-x="1359"
     inkscape:window-y="0"
     inkscape:window-maximized="0" />
  <metadata
     id="metadata5">
    <rdf:RDF>
      <cc:Work
         rdf:about="">
        <dc:format>image/svg+xml</dc:format>
        <dc:type
           rdf:resource="http://purl.org/dc/dcmitype/StillImage" />
        <dc:title></dc:title>
      </cc:Work>
    </rdf:RDF>
  </metadata>
  <g
     inkscape:label="Layer 1"
     inkscape:groupmode="layer"
     id="layer1"
     transform="translate(0,-285)">
    <g
       id="g4491"
       transform="matrix(0.26458333,0,0,0.26458333,-1.4311438,282.6919)"
       style="fill:#34527b;fill-opacity:1">
      <g
         id="g4489"
         style="fill:#34527b;fill-opacity:1">
        <path
           id="path4485"
           d="m 53.92,13.959 c -2.455,-2.455 -5.72,-3.808 -9.192,-3.808 -3.472,0 -6.737,1.352 -9.192,3.808 L 32,17.495 28.464,13.959 c -2.455,-2.456 -5.72,-3.808 -9.192,-3.808 -3.472,0 -6.737,1.352 -9.192,3.808 -5.068,5.069 -5.068,13.316 0,18.385 l 21.213,21.212 c 0.195,0.195 0.451,0.293 0.707,0.293 0.256,0 0.512,-0.098 0.707,-0.293 L 53.92,32.344 c 2.455,-2.456 3.808,-5.72 3.808,-9.192 0,-3.473 -1.353,-6.738 -3.808,-9.193 z M 52.506,30.93 32,51.435 11.494,30.93 c -4.289,-4.289 -4.289,-11.268 0,-15.557 2.078,-2.078 4.84,-3.222 7.778,-3.222 2.938,0 5.701,1.144 7.778,3.222 l 4.243,4.243 c 0.375,0.375 1.039,0.375 1.414,0 l 4.242,-4.243 c 2.078,-2.078 4.84,-3.222 7.778,-3.222 2.938,0 5.701,1.144 7.778,3.222 2.078,2.078 3.222,4.84 3.222,7.778 0.001,2.938 -1.143,5.701 -3.221,7.779 z"
           inkscape:connector-curvature="0"
           style="fill:#34527b;fill-opacity:1" />
        <path
           id="path4487"
           d="m 44,29 h -9.465 l -3.703,-5.555 c -0.206,-0.309 -0.565,-0.477 -0.936,-0.44 -0.37,0.039 -0.687,0.278 -0.825,0.623 L 25.634,32.22 22.706,29.292 C 22.52,29.105 22.265,29 22,29 h -2 c -0.552,0 -1,0.448 -1,1 0,0.552 0.448,1 1,1 h 1.586 l 3.707,3.707 C 25.482,34.896 25.737,35 26,35 c 0.067,0 0.134,-0.007 0.201,-0.021 0.329,-0.067 0.603,-0.296 0.728,-0.608 l 3.294,-8.235 2.945,4.418 C 33.354,30.833 33.666,31 34,31 h 10 c 0.553,0 1,-0.448 1,-1 0,-0.552 -0.447,-1 -1,-1 z"
           inkscape:connector-curvature="0"
           style="fill:#34527b;fill-opacity:1" />
      </g>
    </g>
  </g>
</svg>
