<svg xmlns="http://www.w3.org/2000/svg" xmlns:xlink="http://www.w3.org/1999/xlink" version="1.1" x="0px" y="0px" viewBox="0 0 64 80" enable-background="new 0 0 64 64" xml:space="preserve"><g><g><path d="M53.92,13.959c-2.455-2.455-5.72-3.808-9.192-3.808s-6.737,1.352-9.192,3.808L32,17.495l-3.536-3.536    c-2.455-2.456-5.72-3.808-9.192-3.808c-3.472,0-6.737,1.352-9.192,3.808c-5.068,5.069-5.068,13.316,0,18.385l21.213,21.212    c0.195,0.195,0.451,0.293,0.707,0.293s0.512-0.098,0.707-0.293L53.92,32.344c2.455-2.456,3.808-5.72,3.808-9.192    C57.728,19.679,56.375,16.414,53.92,13.959z M52.506,30.93L32,51.435L11.494,30.93c-4.289-4.289-4.289-11.268,0-15.557    c2.078-2.078,4.84-3.222,7.778-3.222c2.938,0,5.701,1.144,7.778,3.222l4.243,4.243c0.375,0.375,1.039,0.375,1.414,0l4.242-4.243    c2.078-2.078,4.84-3.222,7.778-3.222s5.701,1.144,7.778,3.222c2.078,2.078,3.222,4.84,3.222,7.778    C55.728,26.089,54.584,28.852,52.506,30.93z"/><path d="M44,29h-9.465l-3.703-5.555c-0.206-0.309-0.565-0.477-0.936-0.44c-0.37,0.039-0.687,0.278-0.825,0.623l-3.437,8.592    l-2.928-2.928C22.52,29.105,22.265,29,22,29h-2c-0.552,0-1,0.448-1,1s0.448,1,1,1h1.586l3.707,3.707    C25.482,34.896,25.737,35,26,35c0.067,0,0.134-0.007,0.201-0.021c0.329-0.067,0.603-0.296,0.728-0.608l3.294-8.235l2.945,4.418    C33.354,30.833,33.666,31,34,31h10c0.553,0,1-0.448,1-1S44.553,29,44,29z"/></g></g><text x="0" y="79" fill="#000000" font-size="5px" font-weight="bold" font-family="'Helvetica Neue', Helvetica, Arial-Unicode, Arial, Sans-serif">Created by Ralf Schmitzer</text><text x="0" y="84" fill="#000000" font-size="5px" font-weight="bold" font-family="'Helvetica Neue', Helvetica, Arial-Unicode, Arial, Sans-serif">from the Noun Project</text></svg>