<svg xmlns="http://www.w3.org/2000/svg" xmlns:xlink="http://www.w3.org/1999/xlink" version="1.1" x="0px" y="0px" viewBox="0 0 64 80" enable-background="new 0 0 64 64" xml:space="preserve"><g><path d="M56.707,31.293L47,21.586V14c0-0.552-0.447-1-1-1s-1,0.448-1,1v5.586L32.707,7.293c-0.391-0.391-1.023-0.391-1.414,0   l-24,24c-0.391,0.391-0.391,1.023,0,1.414C7.488,32.902,7.744,33,8,33s0.512-0.098,0.707-0.293L13,28.414V56c0,0.553,0.448,1,1,1   h36c0.553,0,1-0.447,1-1V28.414l4.293,4.293C55.488,32.902,55.744,33,56,33s0.512-0.098,0.707-0.293   C57.098,32.316,57.098,31.684,56.707,31.293z M49,55H15V26.414l17-17l17,17V55z"/></g><text x="0" y="79" fill="#000000" font-size="5px" font-weight="bold" font-family="'Helvetica Neue', Helvetica, Arial-Unicode, Arial, Sans-serif">Created by Ralf Schmitzer</text><text x="0" y="84" fill="#000000" font-size="5px" font-weight="bold" font-family="'Helvetica Neue', Helvetica, Arial-Unicode, Arial, Sans-serif">from the Noun Project</text></svg>