<svg xmlns="http://www.w3.org/2000/svg" data-name="Layer 1" viewBox="0 0 100 125" x="0px" y="0px"><title>thicker_phone_ringing</title><path d="M84.52,69.41q-7.5-4.48-15-8.89a7.29,7.29,0,0,0-8.93,1.18c-1.33,1.33-2.65,2.68-4,4a11,11,0,0,1-3.29-1.44,56,56,0,0,1-16-15.15,18.59,18.59,0,0,1-2.94-5.66q1.8-1.76,3.56-3.56a6.94,6.94,0,0,0,1.2-8.3L35.8,25.35q-2.47-4.7-5-9.4a6.46,6.46,0,0,0-4.62-3.55,5.79,5.79,0,0,0-5,1.76c-3.55,3.51-7.22,7.18-10.9,10.91a8.8,8.8,0,0,0-2.44,5.23A22.7,22.7,0,0,0,8.4,38.1a53.86,53.86,0,0,0,7.47,17.45C20,62.12,25.24,68.22,32.93,75.32A74.43,74.43,0,0,0,54.34,89.27a37.66,37.66,0,0,0,13.8,3.05h.35a9.44,9.44,0,0,0,6.67-2.69q3.92-3.86,7.82-7.74l2.69-2.67A6.36,6.36,0,0,0,87.74,74,6.25,6.25,0,0,0,84.52,69.41Zm-2.19,6.47-3,3q-3.74,3.72-7.5,7.43a4.61,4.61,0,0,1-3.56,1.33,33,33,0,0,1-12.1-2.68,69.7,69.7,0,0,1-20-13.07C28.77,65,23.75,59.24,19.88,53A49.36,49.36,0,0,1,13,37.11a18.32,18.32,0,0,1-.46-6.23,4.2,4.2,0,0,1,1.11-2.5C17.34,24.66,21,21,24.53,17.51a1.36,1.36,0,0,1,.95-.45h0a1.93,1.93,0,0,1,1.17,1.09L31.31,27l3.61,6.86a2.19,2.19,0,0,1-.39,2.81q-1.8,1.85-3.66,3.66a4.17,4.17,0,0,0-1.13,4.26,22.93,22.93,0,0,0,3.75,7.4A60.64,60.64,0,0,0,50.81,68.33a15.12,15.12,0,0,0,5.07,2.09,4.12,4.12,0,0,0,3.88-1.2c1.37-1.4,2.74-2.8,4.13-4.19a2.62,2.62,0,0,1,3.21-.44q7.52,4.41,15,8.87c.57.34.92.73,1,1.07A1.9,1.9,0,0,1,82.33,75.87Z"/><path d="M77,52.76a2,2,0,1,0,3.91-.87A43.12,43.12,0,0,0,44.33,18.53a2,2,0,0,0-.51,4A39.11,39.11,0,0,1,77,52.76Z"/><path d="M44.08,7.67a2,2,0,1,0,0,4A44.52,44.52,0,0,1,88.28,52.5a2,2,0,0,0,2,1.84h.16a2,2,0,0,0,1.84-2.15A48.54,48.54,0,0,0,44.08,7.67Z"/><text x="0" y="115" fill="#000000" font-size="5px" font-weight="bold" font-family="'Helvetica Neue', Helvetica, Arial-Unicode, Arial, Sans-serif">Created by Davo Sime</text><text x="0" y="120" fill="#000000" font-size="5px" font-weight="bold" font-family="'Helvetica Neue', Helvetica, Arial-Unicode, Arial, Sans-serif">from the Noun Project</text></svg>