<?xml version="1.0" encoding="UTF-8" standalone="no"?>
<!-- Created with Inkscape (http://www.inkscape.org/) -->

<svg
   xmlns:dc="http://purl.org/dc/elements/1.1/"
   xmlns:cc="http://creativecommons.org/ns#"
   xmlns:rdf="http://www.w3.org/1999/02/22-rdf-syntax-ns#"
   xmlns:svg="http://www.w3.org/2000/svg"
   xmlns="http://www.w3.org/2000/svg"
   xmlns:sodipodi="http://sodipodi.sourceforge.net/DTD/sodipodi-0.dtd"
   xmlns:inkscape="http://www.inkscape.org/namespaces/inkscape"
   width="23mm"
   height="23mm"
   viewBox="0 0 23 23"
   version="1.1"
   id="svg8"
   inkscape:version="0.92.1 r15371"
   sodipodi:docname="phone_white.svg">
  <defs
     id="defs2" />
  <sodipodi:namedview
     id="base"
     pagecolor="#ffffff"
     bordercolor="#666666"
     borderopacity="1.0"
     inkscape:pageopacity="0.0"
     inkscape:pageshadow="2"
     inkscape:zoom="5.6"
     inkscape:cx="60.555079"
     inkscape:cy="46.982607"
     inkscape:document-units="mm"
     inkscape:current-layer="layer1"
     showgrid="false"
     inkscape:window-width="1278"
     inkscape:window-height="1368"
     inkscape:window-x="1359"
     inkscape:window-y="0"
     inkscape:window-maximized="0" />
  <metadata
     id="metadata5">
    <rdf:RDF>
      <cc:Work
         rdf:about="">
        <dc:format>image/svg+xml</dc:format>
        <dc:type
           rdf:resource="http://purl.org/dc/dcmitype/StillImage" />
        <dc:title></dc:title>
      </cc:Work>
    </rdf:RDF>
  </metadata>
  <g
     inkscape:label="Layer 1"
     inkscape:groupmode="layer"
     id="layer1"
     transform="translate(0,-274)">
    <g
       id="g4531"
       transform="matrix(0.26458333,0,0,0.26458333,-1.6548882,272.24385)"
       style="stroke:none;stroke-opacity:1;fill:#ffffff;fill-opacity:1">
      <path
         id="path4514"
         d="m 84.52,69.41 q -7.5,-4.48 -15,-8.89 a 7.29,7.29 0 0 0 -8.93,1.18 c -1.33,1.33 -2.65,2.68 -4,4 A 11,11 0 0 1 53.3,64.26 56,56 0 0 1 37.3,49.11 18.59,18.59 0 0 1 34.36,43.45 q 1.8,-1.76 3.56,-3.56 a 6.94,6.94 0 0 0 1.2,-8.3 L 35.8,25.35 q -2.47,-4.7 -5,-9.4 a 6.46,6.46 0 0 0 -4.62,-3.55 5.79,5.79 0 0 0 -5,1.76 c -3.55,3.51 -7.22,7.18 -10.9,10.91 a 8.8,8.8 0 0 0 -2.44,5.23 22.7,22.7 0 0 0 0.56,7.8 53.86,53.86 0 0 0 7.47,17.45 c 4.13,6.57 9.37,12.67 17.06,19.77 a 74.43,74.43 0 0 0 21.41,13.95 37.66,37.66 0 0 0 13.8,3.05 h 0.35 a 9.44,9.44 0 0 0 6.67,-2.69 q 3.92,-3.86 7.82,-7.74 l 2.69,-2.67 A 6.36,6.36 0 0 0 87.74,74 6.25,6.25 0 0 0 84.52,69.41 Z m -2.19,6.47 -3,3 q -3.74,3.72 -7.5,7.43 a 4.61,4.61 0 0 1 -3.56,1.33 33,33 0 0 1 -12.1,-2.68 69.7,69.7 0 0 1 -20,-13.07 C 28.77,65 23.75,59.24 19.88,53 A 49.36,49.36 0 0 1 13,37.11 18.32,18.32 0 0 1 12.54,30.88 4.2,4.2 0 0 1 13.65,28.38 C 17.34,24.66 21,21 24.53,17.51 a 1.36,1.36 0 0 1 0.95,-0.45 v 0 a 1.93,1.93 0 0 1 1.17,1.09 l 4.66,8.85 3.61,6.86 a 2.19,2.19 0 0 1 -0.39,2.81 q -1.8,1.85 -3.66,3.66 a 4.17,4.17 0 0 0 -1.13,4.26 22.93,22.93 0 0 0 3.75,7.4 60.64,60.64 0 0 0 17.32,16.34 15.12,15.12 0 0 0 5.07,2.09 4.12,4.12 0 0 0 3.88,-1.2 c 1.37,-1.4 2.74,-2.8 4.13,-4.19 a 2.62,2.62 0 0 1 3.21,-0.44 q 7.52,4.41 15,8.87 c 0.57,0.34 0.92,0.73 1,1.07 a 1.9,1.9 0 0 1 -0.77,1.34 z"
         inkscape:connector-curvature="0"
         style="stroke:none;stroke-opacity:1;fill:#ffffff;fill-opacity:1" />
      <path
         id="path4516"
         d="m 77,52.76 a 2.0028105,2.0028105 0 1 0 3.91,-0.87 43.12,43.12 0 0 0 -36.58,-33.36 2.0161907,2.0161907 0 0 0 -0.51,4 A 39.11,39.11 0 0 1 77,52.76 Z"
         inkscape:connector-curvature="0"
         style="stroke:none;stroke-opacity:1;fill:#ffffff;fill-opacity:1" />
      <path
         id="path4518"
         d="m 44.08,7.67 a 2,2 0 1 0 0,4 44.52,44.52 0 0 1 44.2,40.83 2,2 0 0 0 2,1.84 h 0.16 A 2,2 0 0 0 92.28,52.19 48.54,48.54 0 0 0 44.08,7.67 Z"
         inkscape:connector-curvature="0"
         style="stroke:none;stroke-opacity:1;fill:#ffffff;fill-opacity:1" />
    </g>
  </g>
</svg>
