<svg xmlns="http://www.w3.org/2000/svg" xmlns:xlink="http://www.w3.org/1999/xlink" version="1.1" x="0px" y="0px" viewBox="0 0 64 80" enable-background="new 0 0 64 64" xml:space="preserve"><g><g><path d="M50,19c-6.065,0-11-4.935-11-11c0-0.552-0.447-1-1-1H26c-0.552,0-1,0.448-1,1c0,6.065-4.935,11-11,11    c-0.552,0-1,0.448-1,1v12c0,11.426,17.664,24.271,18.416,24.812C31.59,56.938,31.795,57,32,57s0.41-0.062,0.584-0.188    C33.336,56.271,51,43.426,51,32V20C51,19.448,50.553,19,50,19z M49,32c0,9.313-13.948,20.432-17,22.752    C28.947,52.432,15,41.319,15,32V20.962C21.373,20.475,26.475,15.373,26.962,9l10.076,0C37.525,15.373,42.627,20.475,49,20.962V32z    "/><path d="M39.293,27.293L30,36.586l-3.293-3.293c-0.391-0.391-1.023-0.391-1.414,0s-0.391,1.023,0,1.414l4,4    C29.488,38.902,29.744,39,30,39s0.512-0.098,0.707-0.293l10-10c0.391-0.391,0.391-1.023,0-1.414S39.684,26.902,39.293,27.293z"/></g></g><text x="0" y="79" fill="#000000" font-size="5px" font-weight="bold" font-family="'Helvetica Neue', Helvetica, Arial-Unicode, Arial, Sans-serif">Created by Ralf Schmitzer</text><text x="0" y="84" fill="#000000" font-size="5px" font-weight="bold" font-family="'Helvetica Neue', Helvetica, Arial-Unicode, Arial, Sans-serif">from the Noun Project</text></svg>