<?xml version="1.0" encoding="UTF-8" standalone="no"?>
<!-- Created with Inkscape (http://www.inkscape.org/) -->

<svg
   xmlns:dc="http://purl.org/dc/elements/1.1/"
   xmlns:cc="http://creativecommons.org/ns#"
   xmlns:rdf="http://www.w3.org/1999/02/22-rdf-syntax-ns#"
   xmlns:svg="http://www.w3.org/2000/svg"
   xmlns="http://www.w3.org/2000/svg"
   xmlns:sodipodi="http://sodipodi.sourceforge.net/DTD/sodipodi-0.dtd"
   xmlns:inkscape="http://www.inkscape.org/namespaces/inkscape"
   width="26mm"
   height="16mm"
   viewBox="0 0 26 16"
   version="1.1"
   id="svg8"
   inkscape:version="0.92.1 r15371"
   sodipodi:docname="truck.svg">
  <defs
     id="defs2" />
  <sodipodi:namedview
     id="base"
     pagecolor="#ffffff"
     bordercolor="#666666"
     borderopacity="1.0"
     inkscape:pageopacity="0.0"
     inkscape:pageshadow="2"
     inkscape:zoom="7.9195959"
     inkscape:cx="52.473643"
     inkscape:cy="21.021317"
     inkscape:document-units="mm"
     inkscape:current-layer="layer1"
     showgrid="false"
     inkscape:window-width="1278"
     inkscape:window-height="1368"
     inkscape:window-x="1359"
     inkscape:window-y="0"
     inkscape:window-maximized="0" />
  <metadata
     id="metadata5">
    <rdf:RDF>
      <cc:Work
         rdf:about="">
        <dc:format>image/svg+xml</dc:format>
        <dc:type
           rdf:resource="http://purl.org/dc/dcmitype/StillImage" />
        <dc:title></dc:title>
      </cc:Work>
    </rdf:RDF>
  </metadata>
  <g
     inkscape:label="Layer 1"
     inkscape:groupmode="layer"
     id="layer1"
     transform="translate(0,-281)">
    <g
       id="g4568"
       transform="matrix(0.26458333,0,0,0.26458333,-0.54152654,275.81961)"
       style="fill:#34527b;fill-opacity:1">
      <g
         id="g4541"
         style="fill:#34527b;fill-opacity:1">
        <path
           id="path4539"
           d="m 20.049,67.022 c -1.395,0 -2.54,1.141 -2.54,2.548 0,1.404 1.145,2.545 2.54,2.545 1.412,0 2.551,-1.141 2.551,-2.545 0,-1.407 -1.14,-2.548 -2.551,-2.548 z"
           inkscape:connector-curvature="0"
           style="fill:#34527b;fill-opacity:1" />
      </g>
      <g
         id="g4545"
         style="fill:#34527b;fill-opacity:1">
        <path
           id="path4543"
           d="m 49.853,67.022 c -1.404,0 -2.549,1.141 -2.549,2.548 0,1.404 1.145,2.545 2.549,2.545 1.408,0 2.548,-1.141 2.548,-2.545 -0.001,-1.407 -1.14,-2.548 -2.548,-2.548 z"
           inkscape:connector-curvature="0"
           style="fill:#34527b;fill-opacity:1" />
      </g>
      <g
         id="g4549"
         style="fill:#34527b;fill-opacity:1">
        <path
           id="path4547"
           d="m 78.516,67.022 c -1.403,0 -2.539,1.141 -2.539,2.548 0,1.404 1.138,2.545 2.539,2.545 1.411,0 2.542,-1.141 2.542,-2.545 0,-1.407 -1.131,-2.548 -2.542,-2.548 z"
           inkscape:connector-curvature="0"
           style="fill:#34527b;fill-opacity:1" />
      </g>
      <path
         id="path4551"
         d="m 98.063,67.509 v -4.949 -8.1 -1.572 c 0,-2.049 -1.257,-3.551 -1.257,-3.551 L 87.042,37.89 c -0.009,-0.013 -0.016,-0.013 -0.016,-0.026 -1.215,-1.412 -2.643,-1.53 -3.009,-1.541 H 66.203 V 22.838 c 0,-2.754 -2.51,-2.664 -2.51,-2.664 H 5.873 c 0,0 -3.373,-0.09 -3.373,3.052 v 43.495 c 0.115,1.228 0.817,3.349 4.333,3.349 h 3 c 0.249,5.429 4.731,9.756 10.215,9.756 5.496,0 9.976,-4.328 10.233,-9.756 h 9.345 c 0.265,5.429 4.738,9.756 10.226,9.756 5.485,0 9.966,-4.328 10.232,-9.756 h 4.294 1.822 2.09 c 0.257,5.429 4.731,9.756 10.223,9.756 5.488,0 9.969,-4.328 10.226,-9.756 h 7.021 c 0.469,-0.014 2.303,-0.218 2.303,-2.561 z m -78.014,9.723 c -4.222,0 -7.66,-3.435 -7.66,-7.662 0,-4.229 3.437,-7.66 7.66,-7.66 4.224,0 7.669,3.432 7.669,7.66 0,4.228 -3.445,7.662 -7.669,7.662 z m 29.804,0 c -4.225,0 -7.662,-3.435 -7.662,-7.662 0,-4.229 3.436,-7.66 7.662,-7.66 4.225,0 7.661,3.432 7.661,7.66 0,4.228 -3.439,7.662 -7.661,7.662 z m 13.753,-9.766 h -3.718 c -0.967,-4.641 -5.104,-8.148 -10.036,-8.148 -4.934,0 -9.065,3.508 -10.03,8.148 h -9.734 c -0.967,-4.641 -5.105,-8.148 -10.039,-8.148 -4.932,0 -9.063,3.508 -10.029,8.148 H 5.087 V 22.767 h 58.521 z m 15.332,-28.55 h 5.57 l 9.4,11.021 h -14.97 z m -0.422,38.316 c -4.062,0 -7.386,-3.17 -7.646,-7.163 h 0.01 l 0.101,-1.196 c 0.327,-3.896 3.647,-6.955 7.561,-6.963 0.017,0 0.032,0.008 0.053,0.008 0.438,0 0.866,0.051 1.278,0.115 0.056,0.013 0.107,0.016 0.163,0.029 0.412,0.08 0.804,0.208 1.186,0.356 0.061,0.016 0.123,0.038 0.178,0.057 0.391,0.163 0.755,0.354 1.105,0.575 0.048,0.022 0.086,0.034 0.118,0.066 0.364,0.234 0.71,0.5 1.028,0.78 0.016,0.026 0.038,0.042 0.061,0.059 0.319,0.304 0.625,0.638 0.896,0.988 0.008,0.012 0.008,0.022 0.016,0.022 0.835,1.106 1.373,2.446 1.497,3.907 l 0.056,0.64 c 0,0.02 0,0.035 0,0.058 0,4.228 -3.436,7.662 -7.661,7.662 z M 95.475,59.979 h -4.877 v -2.922 h 4.877 z m 0,-5.519 H 90.434 C 89.816,54.478 88,54.689 88,56.821 v 3.486 c 0.022,0.46 0.229,2.252 2.651,2.252 h 4.823 v 4.906 h -6.922 c -0.595,-2.835 -2.384,-5.246 -4.8,-6.69 -0.07,-0.048 -0.141,-0.086 -0.21,-0.123 -0.157,-0.089 -0.321,-0.179 -0.478,-0.253 -0.123,-0.058 -0.257,-0.128 -0.379,-0.187 -0.142,-0.058 -0.276,-0.116 -0.415,-0.171 -0.162,-0.062 -0.345,-0.132 -0.516,-0.189 -0.116,-0.043 -0.232,-0.066 -0.35,-0.11 C 81.191,59.676 80.976,59.627 80.757,59.579 80.678,59.558 80.586,59.53 80.491,59.52 80.225,59.462 79.946,59.424 79.656,59.392 79.619,59.379 79.579,59.374 79.533,59.374 79.215,59.344 78.879,59.32 78.551,59.32 h -0.019 -0.019 c -0.101,0 -0.194,0.013 -0.294,0.013 -0.203,0.013 -0.405,0.013 -0.609,0.032 -0.273,0.027 -0.545,0.07 -0.812,0.119 -0.016,0 -0.03,0 -0.046,0 -4.124,0.719 -7.427,3.916 -8.275,7.986 H 66.964 V 38.92 h 9.374 V 50 c 0,0 0.032,2.518 2.597,2.518 h 16.537 v 1.942 z"
         inkscape:connector-curvature="0"
         style="fill:#34527b;fill-opacity:1" />
    </g>
  </g>
</svg>
