<svg xmlns="http://www.w3.org/2000/svg" xmlns:xlink="http://www.w3.org/1999/xlink" version="1.1" x="0px" y="0px" viewBox="0 0 100 125" enable-background="new 0 0 100 100" xml:space="preserve"><g><path fill="#000000" d="M20.049,67.022c-1.395,0-2.54,1.141-2.54,2.548c0,1.404,1.145,2.545,2.54,2.545   c1.412,0,2.551-1.141,2.551-2.545C22.6,68.163,21.46,67.022,20.049,67.022z"/></g><g><path fill="#000000" d="M49.853,67.022c-1.404,0-2.549,1.141-2.549,2.548c0,1.404,1.145,2.545,2.549,2.545   c1.408,0,2.548-1.141,2.548-2.545C52.4,68.163,51.261,67.022,49.853,67.022z"/></g><g><path fill="#000000" d="M78.516,67.022c-1.403,0-2.539,1.141-2.539,2.548c0,1.404,1.138,2.545,2.539,2.545   c1.411,0,2.542-1.141,2.542-2.545C81.058,68.163,79.927,67.022,78.516,67.022z"/></g><path fill="#000000" d="M98.063,67.509V62.56v-8.1v-1.572c0-2.049-1.257-3.551-1.257-3.551L87.042,37.89  c-0.009-0.013-0.016-0.013-0.016-0.026c-1.215-1.412-2.643-1.53-3.009-1.541H66.203V22.838c0-2.754-2.51-2.664-2.51-2.664H5.873  c0,0-3.373-0.09-3.373,3.052v43.495c0.115,1.228,0.817,3.349,4.333,3.349h3c0.249,5.429,4.731,9.756,10.215,9.756  c5.496,0,9.976-4.328,10.233-9.756h9.345c0.265,5.429,4.738,9.756,10.226,9.756c5.485,0,9.966-4.328,10.232-9.756h4.294h1.822h2.09  c0.257,5.429,4.731,9.756,10.223,9.756c5.488,0,9.969-4.328,10.226-9.756h7.021C96.229,70.056,98.063,69.852,98.063,67.509z   M20.049,77.232c-4.222,0-7.66-3.435-7.66-7.662c0-4.229,3.437-7.66,7.66-7.66c4.224,0,7.669,3.432,7.669,7.66  C27.718,73.798,24.273,77.232,20.049,77.232z M49.853,77.232c-4.225,0-7.662-3.435-7.662-7.662c0-4.229,3.436-7.66,7.662-7.66  c4.225,0,7.661,3.432,7.661,7.66C57.514,73.798,54.075,77.232,49.853,77.232z M63.606,67.466h-3.718  c-0.967-4.641-5.104-8.148-10.036-8.148c-4.934,0-9.065,3.508-10.03,8.148h-9.734c-0.967-4.641-5.105-8.148-10.039-8.148  c-4.932,0-9.063,3.508-10.029,8.148H5.087V22.767h58.521L63.606,67.466L63.606,67.466z M78.938,38.916h5.57l9.4,11.021H78.938  V38.916z M78.516,77.232c-4.062,0-7.386-3.17-7.646-7.163h0.01l0.101-1.196c0.327-3.896,3.647-6.955,7.561-6.963  c0.017,0,0.032,0.008,0.053,0.008c0.438,0,0.866,0.051,1.278,0.115c0.056,0.013,0.107,0.016,0.163,0.029  c0.412,0.08,0.804,0.208,1.186,0.356c0.061,0.016,0.123,0.038,0.178,0.057c0.391,0.163,0.755,0.354,1.105,0.575  c0.048,0.022,0.086,0.034,0.118,0.066c0.364,0.234,0.71,0.5,1.028,0.78c0.016,0.026,0.038,0.042,0.061,0.059  c0.319,0.304,0.625,0.638,0.896,0.988c0.008,0.012,0.008,0.022,0.016,0.022c0.835,1.106,1.373,2.446,1.497,3.907l0.056,0.64  c0,0.02,0,0.035,0,0.058C86.177,73.798,82.741,77.232,78.516,77.232z M95.475,59.979h-4.877v-2.922h4.877V59.979z M95.475,54.46  h-5.041C89.816,54.478,88,54.689,88,56.821v3.486c0.022,0.46,0.229,2.252,2.651,2.252h4.823v4.906h-6.922  c-0.595-2.835-2.384-5.246-4.8-6.69c-0.07-0.048-0.141-0.086-0.21-0.123c-0.157-0.089-0.321-0.179-0.478-0.253  c-0.123-0.058-0.257-0.128-0.379-0.187c-0.142-0.058-0.276-0.116-0.415-0.171c-0.162-0.062-0.345-0.132-0.516-0.189  c-0.116-0.043-0.232-0.066-0.35-0.11c-0.213-0.066-0.428-0.115-0.647-0.163c-0.079-0.021-0.171-0.049-0.266-0.059  c-0.266-0.058-0.545-0.096-0.835-0.128c-0.037-0.013-0.077-0.018-0.123-0.018c-0.318-0.03-0.654-0.054-0.982-0.054h-0.019h-0.019  c-0.101,0-0.194,0.013-0.294,0.013c-0.203,0.013-0.405,0.013-0.609,0.032c-0.273,0.027-0.545,0.07-0.812,0.119  c-0.016,0-0.03,0-0.046,0c-4.124,0.719-7.427,3.916-8.275,7.986h-1.513v-28.55h9.374V50c0,0,0.032,2.518,2.597,2.518h16.537V54.46z"/><text x="0" y="115" fill="#000000" font-size="5px" font-weight="bold" font-family="'Helvetica Neue', Helvetica, Arial-Unicode, Arial, Sans-serif">Created by Iconic</text><text x="0" y="120" fill="#000000" font-size="5px" font-weight="bold" font-family="'Helvetica Neue', Helvetica, Arial-Unicode, Arial, Sans-serif">from the Noun Project</text></svg>