<?xml version="1.0" encoding="UTF-8" standalone="no"?>
<!-- Created with Inkscape (http://www.inkscape.org/) -->

<svg
   xmlns:dc="http://purl.org/dc/elements/1.1/"
   xmlns:cc="http://creativecommons.org/ns#"
   xmlns:rdf="http://www.w3.org/1999/02/22-rdf-syntax-ns#"
   xmlns:svg="http://www.w3.org/2000/svg"
   xmlns="http://www.w3.org/2000/svg"
   xmlns:sodipodi="http://sodipodi.sourceforge.net/DTD/sodipodi-0.dtd"
   xmlns:inkscape="http://www.inkscape.org/namespaces/inkscape"
   width="14mm"
   height="14mm"
   viewBox="0 0 14 14"
   version="1.1"
   id="svg8"
   inkscape:version="0.92.1 r15371"
   sodipodi:docname="umbrella.svg">
  <defs
     id="defs2" />
  <sodipodi:namedview
     id="base"
     pagecolor="#ffffff"
     bordercolor="#666666"
     borderopacity="1.0"
     inkscape:pageopacity="0.0"
     inkscape:pageshadow="2"
     inkscape:zoom="7.9195959"
     inkscape:cx="52.473643"
     inkscape:cy="21.021317"
     inkscape:document-units="mm"
     inkscape:current-layer="layer1"
     showgrid="false"
     inkscape:window-width="1278"
     inkscape:window-height="1368"
     inkscape:window-x="1359"
     inkscape:window-y="0"
     inkscape:window-maximized="0" />
  <metadata
     id="metadata5">
    <rdf:RDF>
      <cc:Work
         rdf:about="">
        <dc:format>image/svg+xml</dc:format>
        <dc:type
           rdf:resource="http://purl.org/dc/dcmitype/StillImage" />
        <dc:title></dc:title>
      </cc:Work>
    </rdf:RDF>
  </metadata>
  <g
     inkscape:label="Layer 1"
     inkscape:groupmode="layer"
     id="layer1"
     transform="translate(0,-283)">
    <g
       id="g4572"
       transform="matrix(0.26458333,0,0,0.26458333,-1.5176588,281.61773)"
       style="fill:#34527b;fill-opacity:1">
      <path
         id="path4570"
         d="M 33,9.021 V 8 C 33,7.448 32.552,7 32,7 31.448,7 31,7.448 31,8 V 9.022 C 17.677,9.464 7,18.702 7,30 c 0,0.552 0.448,1 1,1 H 8.349 C 8.772,31 9.15,30.733 9.292,30.334 9.998,28.34 11.89,27 14,27 c 1.678,0 3.235,0.837 4.167,2.24 0.371,0.559 1.295,0.559 1.666,0 C 20.765,27.838 22.322,27 24,27 c 2.11,0 4.002,1.339 4.708,3.333 0.142,0.4 0.52,0.667 0.943,0.667 H 31 v 21 c 0,1.654 -1.346,3 -3,3 -1.654,0 -3,-1.346 -3,-3 0,-0.553 -0.448,-1 -1,-1 -0.552,0 -1,0.447 -1,1 0,2.757 2.243,5 5,5 2.757,0 5,-2.243 5,-5 V 31 h 1.349 c 0.424,0 0.801,-0.267 0.942,-0.666 C 35.998,28.34 37.89,27 40,27 c 1.678,0 3.236,0.837 4.167,2.24 0.371,0.558 1.295,0.558 1.666,0 C 46.764,27.838 48.322,27 50,27 c 2.11,0 4.002,1.34 4.709,3.333 0.142,0.4 0.519,0.667 0.942,0.667 H 56 c 0.553,0 1,-0.448 1,-1 C 57,18.702 46.322,9.464 33,9.021 Z M 50,25 c -1.903,0 -3.695,0.769 -5,2.103 C 43.695,25.769 41.903,25 40,25 c -2.714,0 -5.17,1.581 -6.318,4 h -3.363 c -1.149,-2.419 -3.605,-4 -6.318,-4 -1.903,0 -3.695,0.769 -5,2.103 C 17.695,25.769 15.903,25 14,25 12.238,25 10.584,25.667 9.327,26.796 11.175,17.84 20.639,11 32,11 43.361,11 52.824,17.84 54.673,26.797 53.415,25.667 51.762,25 50,25 Z"
         inkscape:connector-curvature="0"
         style="fill:#34527b;fill-opacity:1" />
    </g>
  </g>
</svg>
