<svg xmlns="http://www.w3.org/2000/svg" xmlns:xlink="http://www.w3.org/1999/xlink" version="1.1" x="0px" y="0px" viewBox="0 0 64 80" enable-background="new 0 0 64 64" xml:space="preserve"><g><path d="M33,9.021V8c0-0.552-0.448-1-1-1s-1,0.448-1,1v1.022C17.677,9.464,7,18.702,7,30c0,0.552,0.448,1,1,1h0.349   c0.423,0,0.801-0.267,0.943-0.666C9.998,28.34,11.89,27,14,27c1.678,0,3.235,0.837,4.167,2.24c0.371,0.559,1.295,0.559,1.666,0   C20.765,27.838,22.322,27,24,27c2.11,0,4.002,1.339,4.708,3.333C28.85,30.733,29.228,31,29.651,31H31v21c0,1.654-1.346,3-3,3   s-3-1.346-3-3c0-0.553-0.448-1-1-1s-1,0.447-1,1c0,2.757,2.243,5,5,5s5-2.243,5-5V31h1.349c0.424,0,0.801-0.267,0.942-0.666   C35.998,28.34,37.89,27,40,27c1.678,0,3.236,0.837,4.167,2.24c0.371,0.558,1.295,0.558,1.666,0C46.764,27.838,48.322,27,50,27   c2.11,0,4.002,1.34,4.709,3.333C54.851,30.733,55.228,31,55.651,31H56c0.553,0,1-0.448,1-1C57,18.702,46.322,9.464,33,9.021z    M50,25c-1.903,0-3.695,0.769-5,2.103C43.695,25.769,41.903,25,40,25c-2.714,0-5.17,1.581-6.318,4h-3.363   c-1.149-2.419-3.605-4-6.318-4c-1.903,0-3.695,0.769-5,2.103C17.695,25.769,15.903,25,14,25c-1.762,0-3.416,0.667-4.673,1.796   C11.175,17.84,20.639,11,32,11c11.361,0,20.824,6.84,22.673,15.797C53.415,25.667,51.762,25,50,25z"/></g><text x="0" y="79" fill="#000000" font-size="5px" font-weight="bold" font-family="'Helvetica Neue', Helvetica, Arial-Unicode, Arial, Sans-serif">Created by Ralf Schmitzer</text><text x="0" y="84" fill="#000000" font-size="5px" font-weight="bold" font-family="'Helvetica Neue', Helvetica, Arial-Unicode, Arial, Sans-serif">from the Noun Project</text></svg>